<?xml version="1.0" encoding="utf-8"?>
<!-- Generator: Adobe Illustrator 16.0.0, SVG Export Plug-In . SVG Version: 6.00 Build 0)  -->
<!DOCTYPE svg PUBLIC "-//W3C//DTD SVG 1.1//EN" "http://www.w3.org/Graphics/SVG/1.1/DTD/svg11.dtd">
<svg version="1.1" id="Layer_1" xmlns="http://www.w3.org/2000/svg" xmlns:xlink="http://www.w3.org/1999/xlink" x="0px" y="0px"
	 width="221.76px" height="81.12px" viewBox="0 0 221.76 81.12" enable-background="new 0 0 221.76 81.12" xml:space="preserve">
<g>
	<path fill-rule="evenodd" clip-rule="evenodd" fill="#DCDCDA" d="M40.796,81.126c-2.989-0.24-5.766-0.964-7.545-3.651
		c-1.123-1.695-1.185-3.695-1.305-5.633c-0.123-1.988,0.134-3.979,0.18-5.967c0.128-5.501-0.555-10.985-0.453-16.491
		c0.03-1.617,0.008-1.579,1.575-1.63c2.396-0.078,4.77,0.416,7.167,0.243c0.798-0.058,1.068,0.38,1.095,1.08
		c0.042,1.118-0.201,2.232-0.189,3.329c0.058,5.431-0.44,10.85-0.286,16.28c0.024,0.845,0.213,1.652,0.414,2.461
		c0.319,1.287,1.141,2.118,2.424,2.371c1.492,0.293,3.033,0.407,4.488-0.1c1.961-0.682,2.522-2.389,2.49-4.219
		c-0.089-5.147-0.204-10.293-0.266-15.44c-0.018-1.459-0.141-2.938-0.182-4.409c-0.025-0.918,0.274-1.369,1.312-1.372
		c2.389-0.007,4.78-0.103,7.166-0.229c1.056-0.056,1.41,0.326,1.37,1.375c-0.293,7.612-0.596,15.224-0.526,22.847
		c0.013,1.414-0.313,2.849-0.77,4.207c-0.599,1.778-1.948,2.93-3.604,3.623c-1.949,0.815-3.999,1.341-6.146,1.326
		c-0.614,0.309-1.315-0.095-1.926,0.235c-1.76,0-3.52,0-5.28,0C41.641,81.063,41.159,81.402,40.796,81.126z"/>
	<path fill-rule="evenodd" clip-rule="evenodd" fill="#DCDCDA" d="M0.24,48.24c1.067-0.346,2.185-0.442,3.284-0.455
		c3.996-0.047,7.995-0.114,11.987,0.009c3.741,0.116,7.244,1.009,9.938,3.919c1.775,1.918,2.805,4.2,3.05,6.737
		c0.348,3.59-0.05,7.101-2.195,10.181c-1.939,2.783-4.614,4.248-8.003,4.6c-2.274,0.237-4.517-0.203-6.779-0.052
		c-1.336,0.089-1.389,0.158-1.268,1.455c0.167,1.781,0.198,3.575,0.31,5.361c0.043,0.686-0.249,0.902-0.911,0.895
		c-2.478-0.027-4.955-0.019-7.433-0.015c-1.098,0.001-1.508-0.486-1.521-1.622c-0.064-5.948,0.453-11.887,0.25-17.834
		c-0.125-3.659-0.313-7.315-0.485-10.972c-0.008-0.179-0.147-0.351-0.225-0.526C0.24,49.36,0.24,48.8,0.24,48.24z"/>
	<path fill-rule="evenodd" clip-rule="evenodd" fill="#EEEDEC" d="M222,53.52c-0.079,0.001-0.157,0.002-0.235,0.003
		c-0.621-1.841-0.614-3.682-0.004-5.524c0.08,0,0.16,0,0.24,0C222,49.84,222,51.68,222,53.52z"/>
	<path fill-rule="evenodd" clip-rule="evenodd" fill="#E7E6E5" d="M47.28,81.36c0.593-0.478,1.286-0.141,1.926-0.235
		c-0.004,0.078-0.006,0.156-0.006,0.235C48.56,81.36,47.92,81.36,47.28,81.36z"/>
	<path fill-rule="evenodd" clip-rule="evenodd" fill="#EEEDED" d="M40.796,81.126c0.407,0.048,0.865-0.167,1.204,0.234
		c-0.4,0-0.8,0-1.2,0C40.8,81.282,40.798,81.204,40.796,81.126z"/>
	<path fill-rule="evenodd" clip-rule="evenodd" fill="#DCDCDB" d="M89.687,65.18c-0.683,1.545-1.402,3.076-2.041,4.64
		c-1.417,3.468-2.8,6.95-4.179,10.434c-0.258,0.651-0.662,0.957-1.368,0.874c-0.748-0.088-1.539,0.212-2.025-0.811
		c-2.127-4.469-3.92-9.081-5.944-13.593c-0.146-0.326-0.307-0.646-0.479-1.004c-0.359,0.202-0.209,0.507-0.21,0.737
		c-0.008,3.16-0.02,6.319,0.013,9.479c0.012,1.151,0.292,2.286,0.233,3.452c-0.049,0.98-0.462,1.488-1.46,1.487
		c-2.16-0.003-4.32,0.001-6.479-0.003c-0.992-0.002-1.476-0.355-1.452-1.5c0.134-6.501,0.85-13,0.445-19.498
		c-0.208-3.343,0.087-6.696-0.39-10.028c-0.281-1.961-0.1-2.083,1.925-2.084c1.913-0.002,3.829,0.052,5.73-0.236
		c0.996-0.151,1.534,0.322,1.932,1.204c2.097,4.657,4.23,9.297,6.357,13.94c0.267,0.581,0.539,1.164,0.864,1.713
		c0.385,0.651,0.817,0.918,1.252,0.006c2.288-4.793,4.583-9.583,6.876-14.374c0.275-0.576,0.504-1.181,0.84-1.719
		c0.355-0.57,0.821-0.796,1.61-0.674c1.732,0.269,3.496,0.233,5.247,0.016c0.473-0.059,0.95-0.082,1.426-0.11
		c0.651-0.04,0.947,0.268,0.949,0.926c0.015,4.387-0.251,8.763-0.431,13.144c-0.09,2.184-0.263,4.39,0.147,6.572
		c0.007,0.039,0.016,0.079,0.017,0.119c0.089,3.83,0.183,7.66,0.261,11.49c0.018,0.866-0.634,1.072-1.298,1.081
		c-2.399,0.032-4.799,0.022-7.199,0.009c-0.875-0.004-1.412-0.501-1.309-1.355c0.411-3.413,0.015-6.853,0.403-10.269
		c0.147-1.301,0.024-2.632,0.024-3.95C89.878,65.255,89.782,65.217,89.687,65.18z"/>
	<path fill-rule="evenodd" clip-rule="evenodd" fill="#DCDCDA" d="M221.761,48c0.001,1.841,0.003,3.683,0.004,5.523
		c-0.363,8.624-0.242,17.251-0.231,25.877c0.001,1.059-0.477,1.438-1.423,1.472c-2.075,0.074-4.142-0.048-6.208-0.232
		c-0.783-0.07-1.175-0.681-1.567-1.196c-3.857-5.065-7.682-10.154-11.519-15.235c-0.237-0.314-0.491-0.816-0.875-0.72
		c-0.488,0.122-0.247,0.687-0.251,1.052c-0.064,4.91,0.388,9.812,0.24,14.724c-0.045,1.489-0.105,1.6-1.539,1.606
		c-2.119,0.009-4.238-0.031-6.356,0.016c-1.133,0.025-1.485-0.398-1.51-1.553c-0.086-4.035,0.132-8.067,0.359-12.081
		c0.206-3.64-0.149-7.243-0.17-10.861c-0.013-2.339-0.034-4.701-0.172-7.047c-0.063-1.076,0.359-1.42,1.39-1.358
		c1.759,0.105,3.508-0.153,5.2-0.572c1.135-0.281,1.832,0.044,2.458,0.906c3.065,4.218,6.135,8.433,9.213,12.641
		c0.94,1.285,1.925,2.537,2.859,3.825c0.253,0.35,0.578,0.709,0.946,0.609c0.496-0.135,0.252-0.685,0.265-1.05
		c0.171-4.908-0.478-9.791-0.475-14.694c0.001-1.649,0.001-1.621,1.667-1.659c2.15-0.049,4.298-0.162,6.448-0.22
		C220.934,47.762,221.404,47.611,221.761,48z"/>
	<path fill-rule="evenodd" clip-rule="evenodd" fill="#DCDCDB" d="M63.63,27.708c-0.109,6.999-3.041,12.376-9.373,15.57
		c-5.803,2.927-14.083,1.853-19.052-3.05c-5.489-5.416-6.328-14.56-3.282-20.729c2.458-4.979,6.46-8.229,11.991-9.092
		c7.116-1.11,13.75,1.455,17.703,8.663C63.089,21.753,63.727,24.637,63.63,27.708z"/>
	<path fill-rule="evenodd" clip-rule="evenodd" fill="#DCDCDB" d="M8.239,11.029c1.393-0.105,3.225-0.065,5.057-0.154
		c3.343-0.162,6.686,0.111,9.729,1.827c3.069,1.73,4.732,4.297,4.812,7.839c0.043,1.914,0.027,3.804-0.7,5.649
		c-0.712,1.805-2.103,2.999-3.493,4.168c-0.716,0.603-0.918,0.983-0.482,1.86c1.598,3.216,3.11,6.475,4.647,9.721
		c0.153,0.323,0.25,0.672,0.387,1.003c0.335,0.815-0.115,1.178-0.813,1.188c-2.598,0.036-5.197,0.035-7.794-0.011
		c-0.654-0.012-1.109-0.36-1.388-1.086c-1.1-2.863-2.33-5.677-3.441-8.536c-0.438-1.128-1.152-1.645-2.343-1.627
		c-2.924,0.042-2.62-0.317-2.553,2.543c0.058,2.462,0.487,4.904,0.486,7.379c0,1.045-0.323,1.412-1.377,1.383
		c-2.277-0.062-4.557-0.007-6.835-0.024c-1.399-0.01-1.678-0.293-1.651-1.702c0.068-3.509,0.006-7.03,0.289-10.522
		c0.285-3.516,0.293-7.033,0.116-10.525C0.74,18.503,0.966,15.583,0.487,12.7c-0.173-1.043,0.348-1.337,1.346-1.454
		C3.824,11.013,5.813,11.066,8.239,11.029z"/>
	<path fill-rule="evenodd" clip-rule="evenodd" fill="#DCDCDA" d="M139.737,80.877c-1.08,0-2.16,0.017-3.239-0.004
		c-1.347-0.025-1.644-0.299-1.607-1.627c0.175-6.299,0.662-12.591,0.461-18.897c-0.118-3.701-0.282-7.401-0.484-11.099
		c-0.063-1.149,0.311-1.609,1.485-1.498c2.376,0.226,4.76,0.203,7.139,0.005c0.951-0.079,1.247,0.32,1.246,1.25
		c-0.003,3.232-0.395,6.452-0.275,9.688c0.072,1.959,0.39,2.187,2.3,1.884c2.06-0.327,3.32-1.49,4.249-3.273
		c1.354-2.6,2.106-5.424,3.175-8.128c0.393-0.996,0.917-1.495,2.024-1.427c2.058,0.125,4.113,0.227,6.182,0.042
		c1.187-0.106,1.377,0.244,1.082,1.427c-0.97,3.886-2.254,7.646-4.496,11.011c-0.802,1.205-1.783,2.256-3.007,3.044
		c-0.606,0.39-0.758,0.678-0.316,1.407c2.52,4.159,5.252,8.194,7.411,12.566c0.053,0.107,0.106,0.215,0.159,0.323
		c1.266,2.57,0.81,3.349-2.043,3.299c-2.11-0.037-4.228,0.217-6.333-0.164c-0.571-0.103-0.902-0.349-1.18-0.854
		c-1.955-3.567-3.941-7.117-5.914-10.675c-0.315-0.568-0.636-1.286-1.418-0.93c-0.793,0.36-1.884,0.415-1.882,1.803
		c0.005,3.074,0.414,6.132,0.274,9.209c-0.059,1.315-0.28,1.591-1.632,1.615C141.976,80.893,140.856,80.877,139.737,80.877z"/>
	<path fill-rule="evenodd" clip-rule="evenodd" fill="#DCDCDA" d="M112.433,47.756c3.56,0.051,6.81-0.242,9.988,0.497
		c5.837,1.357,9.291,5.828,9.359,11.815c0.036,3.121-0.553,6.036-2.326,8.623c-1.897,2.769-4.6,4.16-7.925,4.533
		c-2.313,0.26-4.599-0.207-6.902-0.043c-1.224,0.087-1.356,0.294-1.217,1.553c0.191,1.737,0.231,3.491,0.354,5.236
		c0.047,0.662-0.199,0.928-0.887,0.919c-2.479-0.029-4.958-0.02-7.437-0.015c-1.084,0.002-1.527-0.451-1.541-1.603
		c-0.07-6.071,0.53-12.138,0.222-18.202c-0.191-3.771-0.134-7.557-0.642-11.314c-0.173-1.284-0.12-1.667,1.395-1.82
		C107.514,47.669,110.142,47.903,112.433,47.756z"/>
	<path fill-rule="evenodd" clip-rule="evenodd" fill="#DCDCDA" d="M102.39,36.239c2.06,0.046,4.276-0.133,6.485-0.454
		c1.921-0.279,2.198,0.088,2.038,2.104c-0.135,1.71-0.363,3.396-0.754,5.06c-0.318,1.351-0.779,1.609-2.15,1.342
		c-0.465-0.09-0.947-0.125-1.422-0.125c-5.876-0.01-11.752-0.009-17.628-0.013c-1.963-0.001-2.122-0.122-2.071-2.118
		c0.171-6.696,0.778-13.39,0.427-20.088c-0.167-3.179-0.023-6.373-0.434-9.539c-0.135-1.042,0.29-1.373,1.346-1.39
		c3.913-0.062,7.812,0.438,11.724,0.256c2.508-0.116,5.012-0.296,7.527-0.24c1.982,0.045,2.213,0.157,2.408,2.103
		c0.165,1.658,0.246,3.323,0.471,4.979c0.108,0.798-0.351,1.186-1.172,1.067c-3.722-0.538-7.47-0.457-11.215-0.481
		c-1.072-0.007-1.572,0.405-1.494,1.489c0.025,0.358-0.007,0.72,0.006,1.079c0.063,1.696,0.85,2.486,2.514,2.215
		c1.756-0.286,3.505-0.209,5.252-0.174c1.485,0.029,2.934-0.281,4.408-0.272c0.75,0.004,1.024,0.2,0.896,1.083
		c-0.293,2.001-0.476,4.025-0.559,6.046c-0.041,1.01-0.375,1.412-1.348,1.265c-3.338-0.507-6.698-0.102-10.044-0.244
		c-0.822-0.035-1.198,0.29-1.125,1.122c0.024,0.278,0.007,0.56,0.003,0.839c-0.034,2.727,0.353,2.68,2.982,3.07
		C100.361,36.352,101.297,36.239,102.39,36.239z"/>
	<path fill-rule="evenodd" clip-rule="evenodd" fill="#D5559F" d="M153.833,21.367c0.206-0.528-0.234-1.002-0.069-1.573
		c0.317-1.095,0.501-1.211,1.536-0.61c-0.09,0.128-0.155,0.271-0.257,0.395c-0.184,0.225-0.605,0.377-0.376,0.754
		c0.134,0.22,0.45,0.142,0.657,0.043c0.529-0.25,0.049-0.504-0.029-0.75c-0.049-0.154-0.097-0.295-0.005-0.446
		c1.083,0.525,1.742,1.474,2.411,2.412c0.011,0.196,0.036,0.403,0.276,0.431c0.298,0.035,0.381-0.18,0.413-0.425
		c0.446-0.304,0.824-0.662,0.981-1.202c0.015-0.057,0.031-0.113,0.045-0.169c0.269-0.314,0.528-0.672,0.969-0.219
		c0.066,0.427-0.526,0.736-0.177,1.284c0.465-0.256-0.013-0.973,0.555-1.137c0.489-0.142,0.931,0.116,1.405,0.101
		c0.59-0.019,0.833,0.291,0.537,0.827c-0.371,0.673-0.514,1.15,0.35,1.639c0.554,0.314,0.601,1.123,0.429,1.724
		c-0.158,0.553-0.671,0.601-1.172,0.327c-0.383-0.236-0.136-0.656-0.279-1.133c-0.027,0.526-0.074,0.887,0.278,1.133
		c0.476,0.721,0.37,0.996-0.411,1.063c-0.509-0.592-1.091-1.123-1.571-1.781c-0.026,0.281,0.211,0.57-0.058,0.81
		c-0.774,0.406-1.394,0.447-1.532-0.642c0.017-0.058,0.112-0.139,0.08-0.167c-0.119-0.104,0.063-0.037-0.08,0.056
		c-0.788,0.11-1.08-0.59-1.555-0.964c-0.421-0.332-0.816-0.782-1.316-0.271c-0.57,0.582,0.138,0.913,0.415,1.262
		c0.43,0.541,1.293,0.677,1.441,1.502c0.066,0.386,0.429,0.556,0.625,0.848c0.016,0.049,0.03,0.098,0.045,0.147
		c0.228,1.498-0.937,0.754-1.77,0.948c2.393,1.486,4.622,2.782,7.271,3.148c1.496,0.207,2.998,0.291,4.507,0.241
		c0.317-0.01,0.619,0.01,0.917,0.191c1.205,0.733,2.547,1.012,3.932,1.147c0.491,0.048,1.054,0.007,1.215,0.671
		c0.168,0.694-0.298,0.966-0.778,1.303c-0.513,0.359-1.039,0.562-1.832,0.536c0.808,0.58,1.093,1.242,1.216,2.106
		c0.605,4.234,0.62,8.506,0.905,12.759c0.041,0.615,0.243,1.218-0.037,2.083c1.409-0.963,1.804-2.22,2.226-3.452
		c0.492-1.435,0.064-2.975,0.485-4.422c0.417-1.438,1.292-2.431,2.648-3.115c3.276-1.652,6.576-1.215,9.906-0.278
		c0.379,0.106,0.753,0.248,1.14,0.307c0.737,0.114,0.877,0.603,0.579,1.123c-1.071,1.868-1.339,3.975-1.898,5.996
		c-0.294,1.063-1.238,1.546-2.089,1.955c-2.574,1.237-5.273,1.375-7.993,0.496c-0.783-0.253-0.61-0.944-0.333-1.735
		c-1.493,1.707-2.755,3.287-3.825,5.01c-0.793,1.278-0.589,2.766-0.758,4.157c-0.402,3.299-0.669,6.614-0.966,9.925
		c-0.193,2.156-0.333,4.317-0.511,6.475c-0.149,1.814-0.317,3.627-0.477,5.441c-0.003,0.04,0.005,0.084-0.009,0.119
		c-0.522,1.299-1.611,0.142-2.389,0.506c-0.209,0.098-0.46-0.535-0.38-1.043c0.508-3.235,0.851-6.501,1.467-9.714
		c0.526-2.748,0.916-5.491,0.971-8.285c0.054-2.722-0.189-5.43-0.304-8.144c-0.145-3.403-0.514-6.787-0.632-10.19
		c-0.089-2.585-0.555-5.153-0.421-7.753c0.01-0.197-0.054-0.194-0.257-0.211c-2.04-0.171-4.055-0.733-6.121,0.053
		c-0.62,0.236-1.023,0.703-1.617,0.94c-2.271,0.909-4.288,0.746-6.307-0.81c-2.027-1.562-4.482-2.449-6.87-3.279
		c-1.779-0.618-2.412-2.426-2.305-3.719c0.108-1.309,1.309-2.26,3-2.428c0.869-0.086,1.738-0.192,2.678-0.089
		c-1.868-1.4-2.98-3.257-3.775-5.376c-0.421-1.122-0.127-2.269-0.426-3.401c-0.432-1.632-0.64-3.319-1.678-4.729
		c-0.667-0.906,0.009-1.42,0.677-1.581c1.907-0.459,3.691-1.279,5.579-1.778c0.906-0.239,0.851,0.563,0.916,1.024
		c0.312,2.235,0.971,4.375,1.656,6.511c0.084,0.261,0.217,0.507,0.332,0.758c0.279,0.609,0.04,0.902-0.583,0.962
		c-0.04,0.004-0.08-0.002-0.12,0.002c-0.792,0.069-1.931-0.296-2.21,0.604c-0.288,0.932,0.077,2.007,0.911,2.753
		c0.073,0.143-0.033-0.036,0.053,0.099C153.929,21.482,153.915,21.449,153.833,21.367z"/>
	<path fill-rule="evenodd" clip-rule="evenodd" fill="#DCDCDB" d="M80.927,17.514c-0.485,0.036-1.03-0.005-1.589,0.155
		c-2.862,0.817-3.193,3.081-1.9,5.106c0.875,1.371,1.823,2.731,2.941,3.903c4.548,4.768,3.118,11.878-2.246,15.503
		c-2.252,1.522-4.668,2.543-7.348,3.007c-0.533,0.092-0.84-0.022-1.133-0.379c-1.563-1.902-2.534-4.144-3.575-6.339
		c-0.242-0.51,0.009-0.893,0.624-1.039c1.083-0.256,2.167-0.526,3.222-0.877c3.594-1.197,4.369-4.383,1.809-7.199
		c-1.069-1.176-2.177-2.348-3.056-3.662c-3.015-4.51-2.125-10.03,3.354-13.235c2.023-1.184,4.209-1.857,6.475-2.337
		c0.751-0.16,1.316,0.007,1.603,0.825c0.595,1.697,1.408,3.299,2.214,4.904c0.795,1.584,0.742,1.667-0.967,1.664
		C81.234,17.514,81.114,17.514,80.927,17.514z"/>
	<path fill-rule="evenodd" clip-rule="evenodd" fill="#D5559F" d="M158.88,24c0.035,1.228,0.827,0.83,1.495,0.696
		c0.844-0.182,1.062,0.681,1.621,0.973c0.48-0.222,0.498-0.293,0.244-0.949c0.412-0.039,1.224-0.03,1.039-0.388
		c-0.259-0.499,0.275-1.401-0.731-1.55c-0.886-0.13-0.54-0.81-0.445-1.303c0.063-0.329,0.517-0.484,0.538-0.874
		c-0.323-0.291-0.609,0.11-0.916-0.004c-0.574-0.212-1.538-0.895-0.797,0.618c0.119,0.242-0.106,0.336-0.273,0.443
		c-0.278,0.177-0.521,0.096-0.773-0.062c-0.292-0.181-0.348-0.476-0.229-0.724c0.168-0.349,0.438-0.649,0.664-0.971
		c-0.118-0.245,0.021-0.425,0.148-0.61c0.518-0.486,0.907-1.101,1.497-1.518c0.698-0.319,1.273-0.822,1.883-1.271
		c2.356-1.73,5.02-2.754,7.832-3.444c0.108-0.04,0.218-0.069,0.33-0.092c0.337-0.063,0.679-0.06,1.02-0.075
		c0.474,0.073,0.9-0.385,1.387-0.135c0.26,0.134,0.575,0.491,0.466,0.625c-0.815,1,1.044,1.675,0.285,2.604
		c-0.349,0.427-0.888,0.595-1.406,0.523c-1.185-0.163-1.862,0.393-2.329,1.403c-0.283,0.612-0.715,1.15-0.938,1.839
		c0.403-0.006,0.807-0.236,0.938-0.49c0.63-1.224,1.827-1.638,2.915-2.229c0.314-0.17,0.599-0.49,0.966-0.293
		c0.481,0.257,0.061,0.604,0.029,0.925c-0.073,0.759,0.231,1.641-0.794,2.028c0.794,0.476,1.741,0.05,2.527,0.484
		c0.08,0.082,0.141,0.176,0.179,0.285c0.105,0.504-0.328,0.765-0.58,1.233c0.523-0.153,0.736-0.532,1.024-0.818
		c0.508-0.503,0.958-0.564,1.251,0.219c-0.496,2.027-1.902,3.475-3.337,4.808c-1.203,1.117-2.583,2.123-4.309,2.4
		c-0.056,0.002-0.113,0.004-0.169,0.005c-1.639-0.133-3.301,0.477-4.933-0.139c0.523,0.254,1.047,0.505,1.569,0.762
		c0.314,0.155,0.743,0.255,0.682,0.712c-0.07,0.523-0.63,0.479-0.938,0.52c-2.531,0.329-4.829-0.307-6.876-1.833
		c-0.752-0.561-1.495-1.136-2.242-1.704l0.016,0.02c-0.201-0.403-0.654-0.47-0.966-0.725c0.042-0.491-0.135-0.843-0.615-1.031
		c-0.538-0.21-0.947-0.568-1.191-1.103c-0.136-0.299-0.743-0.521-0.425-0.847c0.365-0.374,1.018-0.806,1.426-0.709
		c0.494,0.116,0.917,0.72,1.268,1.19C158.173,23.785,158.477,23.942,158.88,24z"/>
	<path fill-rule="evenodd" clip-rule="evenodd" fill="#D5559F" d="M162.957,3.83c1.563-2.849,6.162-3.896,8.977-3.056
		c1.907,0.569,3.22,1.097,6.529,4.418c0.051-0.163,0.052-0.367,0.136-0.409c1.232-0.618,2.043-2.058,3.677-1.894
		c0.158,0.016,0.327,0.033,0.478-0.004c2.816-0.691,4.196,0.988,5.684,3.032c1.547,2.125,0.831,3.99,0.154,6.005
		c-0.624,1.857-1.788,3.422-2.721,5.112c-0.164,0.296-0.353,0.393-0.588,0.345c-0.201-0.041-0.471-0.129-0.47-0.456
		c0-0.311-0.033-0.621-0.137-0.945c0.043,1.633-1.116,2.888-1.32,4.434c0.083,0.185-0.028,0.298-0.149,0.409
		c-0.311,0.203-0.54,0.49-0.775,0.771c-0.065,0.083-0.136,0.16-0.207,0.237c-0.26,0.271-0.42,0.608-0.612,0.925
		c-0.261,0.398-0.67,0.601-1.069,0.818c-0.067,0.04-0.134,0.082-0.206,0.113c-0.542,0.239-1.104,0.886-1.679,0.259
		c-0.549-0.598-0.11-1.232,0.257-1.796c0.47-0.32,0.745-0.821,1.125-1.225c0.587-0.623,1.103-1.239,0-1.898
		c-0.396-0.237-0.393-0.647-0.146-1.05c0.126-0.206,0.202-0.466-0.029-0.645c-0.203-0.158-0.365,0.041-0.517,0.155
		c-0.705,0.532-1.307,0.546-1.729-0.339c-0.095-0.199-0.241-0.309-0.452-0.337c-1.799-0.239-1.783-1.833-2.153-3.043
		c-0.251-0.82,0.498-0.572,1-0.78c1.018-0.421,1.887,0.341,2.797-0.021c0.105-0.042,0.281,0.125,0.429,0.185
		c1.105,0.591,1.156,1.604,1.066,2.673c-0.021,0.158,0.23,0.027,0.072,0.048c-0.036,0.005-0.043-0.032-0.04-0.11
		c0.077-1.668,0.853-3.214,0.816-4.913c-0.025-1.198-0.32-2.268-1.018-3.234c-0.094-0.129,0.056-0.015-0.072-0.085
		c-0.08-0.044,0.024,0.083,0,0.135c0.214,0.701-0.014,1.269-0.539,1.719c-0.439,0.376-0.783-0.05-1.255-0.246
		c0.318,0.214,0.548,0.36,0.779,0.504c1.322,0.825,1.305,0.814,0.542,2.158c-0.276,0.487-0.57,0.955-1.175,0.774
		c-0.609-0.182-0.89-0.765-0.736-1.341c0.225-0.841-0.18-0.835-0.764-0.737c-0.56-0.144-0.647-0.643-0.821-1.082
		c-0.981-2.486-2.576-4.454-4.931-5.755c-0.043-0.024-0.773-0.932-0.642,0.192c-0.11,0.547-0.469,0.695-0.95,0.535
		c-0.348-0.115-0.686-0.085-1.032-0.065c-0.801-0.224-1.625,0.156-2.425-0.086c-0.15-0.067-0.281-0.166-0.408-0.268
		c-0.897-0.452-1.356,0.582-2.107,0.623C162.981,4.682,162.581,4.586,162.957,3.83z"/>
	<path fill-rule="evenodd" clip-rule="evenodd" fill="#D5559F" d="M183.141,20.634c0.071-0.074,0.143-0.148,0.214-0.222
		c0.85-0.382,0.912-1.484,1.749-1.899c0.333-0.166,0.589-0.732,0.995-0.417c0.392,0.305,0.789,0.682,0.755,1.343
		c-0.035,0.687-0.283,1.333-0.374,2.224c0.712-0.987,0.714-1.997,1.095-2.869c0.325-0.743,1.012-0.996,1.629-0.497
		c1.985,1.607,2.51,4.712,1.185,6.968c-2.548,4.337-6.332,6.591-11.358,6.768c-0.463,0.016-0.925,0.109-1.387,0.11
		c-0.742,0.001-0.742-0.018-0.703-0.904c-2.311,0.638-4.534,0.589-6.651-0.694c-0.568-0.344-1.167-0.614-1.063-1.374
		c0.111-0.821,0.875-0.368,1.315-0.565c0.201-0.09,0.501,0.021,0.591-0.294l-0.021,0.016c2.997-0.91,5.767-2.271,8.295-4.125
		c0.385-0.283,0.82-0.5,1.082-0.925c0.344-0.197,0.772-0.281,0.949-0.704c0.397-0.214,0.468-0.671,0.732-0.984l-0.018,0.018
		C182.587,21.392,182.823,20.972,183.141,20.634z"/>
	<path fill-rule="evenodd" clip-rule="evenodd" fill="#D5559F" d="M162.957,3.83c-0.107,0.687,0.323,0.573,0.732,0.493
		c0.04,0.582-0.328,0.604-0.769,0.643c-0.081,0.007-0.265-0.81-0.267-0.009c-0.001,0.38-0.263,0.657-0.398,0.984
		c-0.263,0.635-1.095,0.928-0.957,1.821c0.226,1.456,0.309,2.941,1.283,4.16c0.45,0.775,1.183,1.279,1.811,1.883
		c0.27,0.26,0.537,0.547,0.343,0.93c-0.229,0.452-0.626,0.403-0.98,0.221c-0.038-0.029-0.064,0.066-0.04,0.076
		c0.963,0.409,0.751,0.995,0.146,1.488c-0.615,0.5-1.215,1.023-1.865,1.482c-0.458,0.499-0.812,1.101-1.433,1.438
		c-0.661,0.284-0.909-0.156-0.927-0.652c-0.049-1.339-0.182-2.696,0.067-4.016c0.146-0.774,0.133-1.455-0.234-2.135
		c-0.418-0.5-0.468-1.196-0.896-1.693c-0.121-0.439-0.216-0.882-0.214-1.338c-0.019,0.534,0.051,1.05,0.338,1.52
		c0.281,0.535,0.447,1.126,0.807,1.623c0.334,0.77,0.173,1.549,0.125,2.347c-0.081,1.352-0.077,2.712,0.007,4.066
		c0.028,0.462-0.029,0.869-0.283,1.25l0.017-0.017c-0.676,0.12-1.182-0.174-1.523-0.715c-1.825-2.892-2.563-6.134-3.051-9.463
		c-0.146-1,0.274-1.75,0.837-2.486c1.256-1.646,2.494-3.307,3.765-4.942c0.386-0.497,0.842-1.141,1.563-0.817
		c0.703,0.316,1.616,0.584,1.639,1.606C162.607,3.946,162.804,3.797,162.957,3.83z"/>
	<path fill-rule="evenodd" clip-rule="evenodd" fill="#D5559F" d="M158.389,21.595c0.391,0.301,0.136,0.593-0.095,0.751
		c-0.134,0.091-0.468,0.009-0.643-0.104c-0.311-0.2-0.218-0.452,0.049-0.652C157.929,21.777,158.158,21.772,158.389,21.595z"/>
	<path fill-rule="evenodd" clip-rule="evenodd" fill="#D5559F" d="M155.29,19.178c0.057,0.104,0.115,0.207,0.172,0.31
		c0.194,0.355,0.929,0.591,0.577,1c-0.263,0.306-0.964,0.375-1.443,0.317c-0.572-0.068-0.662-0.556-0.274-0.967
		c0.262-0.278,0.648-0.441,0.979-0.655L155.29,19.178z"/>
	<path fill-rule="evenodd" clip-rule="evenodd" fill="#D5559F" d="M161.398,22.655c-0.132,0.334-0.339,0.579-0.68,0.584
		c-0.433,0.007-0.547-0.411-0.689-0.696c-0.141-0.283,0.139-0.457,0.375-0.375C160.748,22.285,161.192,22.255,161.398,22.655z"/>
	<path fill-rule="evenodd" clip-rule="evenodd" fill="#D5559F" d="M162.236,24.713c-0.337-0.048-0.478-0.203-0.457-0.408
		c0.038-0.364-0.443-0.721-0.021-1.074c0.148-0.124,0.288,0.002,0.405,0.103c0.357,0.306,0.347,0.657,0.141,1.045
		C162.252,24.477,162.257,24.605,162.236,24.713z"/>
	<path fill-rule="evenodd" clip-rule="evenodd" fill="#D5559F" d="M158.872,24.008c0.072-0.289-0.127-0.64,0.351-0.929
		C159.409,23.545,159.267,23.805,158.872,24.008z"/>
	<path fill-rule="evenodd" clip-rule="evenodd" fill="#D5559F" d="M155.763,21.924c-0.076,0.112-0.12,0.251-0.195,0.27
		c-0.203,0.051-0.258-0.117-0.237-0.268c0.011-0.08,0.124-0.198,0.195-0.201S155.672,21.842,155.763,21.924z"/>
	<path fill-rule="evenodd" clip-rule="evenodd" fill="#FCF7FA" d="M153.833,21.367c0.323,0.19,0.418,0.48,0.426,0.875
		c-0.506-0.193-0.441-0.548-0.405-0.893L153.833,21.367z"/>
	<path fill-rule="evenodd" clip-rule="evenodd" fill="#D5559F" d="M179.06,13.434c-0.353-0.045-0.635-0.791-1.069-0.087
		c-0.233,0.377-0.467,0.125-0.675-0.068c-0.727-0.675-1.024-0.227-1.212,0.607c-0.236-0.349-0.404-0.597-0.666-0.984
		c-0.103,0.187-0.191,0.28-0.204,0.383c-0.144,1.097,0.703,1.876,0.959,2.854c0.077,0.295,0.634,0.476,1.058,0.399
		c0.436-0.078,0.622-0.186,0.684,0.503c0.072,0.802,0.708,0.726,1.276,0.214c0.235-0.212,0.474-0.908,0.878-0.357
		c0.211,0.288,0.744,0.842,0.074,1.334c-0.544,0.4-0.097,0.615,0.227,0.699c0.96,0.251,0.858,0.837,0.451,1.44
		c-0.498,0.736-1.002,1.489-1.813,1.945c-0.283-0.305-0.253-0.632-0.063-0.964c0.077-0.135,0.152-0.271,0.219-0.411
		c-0.117,0.082-0.168,0.297-0.38,0.188c-0.367-0.661-0.666-0.488-1.001,0.048c-0.391,0.626-0.879,1.116-1.8,0.785
		c0.238-0.646,1.124-0.807,1.232-1.669c0.098-0.125,0.072-0.102,0.036-0.038c-0.018,0.032-0.043,0.055-0.076,0.071
		c0,0,0.001,0.001,0.001,0.001c0.05-0.048,0.101-0.095,0.039-0.034c-1.034,0.025-1.953-0.084-2.875-0.112
		c-0.19-0.005-0.383,0.112-0.487-0.108c-0.133-0.28,0.026-0.419,0.292-0.519c0.702-0.264,1.365-0.52,0.67-1.478
		c-0.381-0.525,0.571-0.578,0.511-1.068c-0.346-0.297-0.63-0.011-0.775,0.202c-0.32,0.471-0.638,0.684-1.264,0.622
		c-0.44-0.043-0.833,0.304-1.023,0.844c-0.377,1.069-1.31,1.347-2.433,1.541c0.684-1.097,1.221-2.119,1.719-3.13
		c0.473-0.961,1.16-0.813,1.872-0.903c0.186-0.023,0.419,0.139,0.57,0.075c0.412-0.173,1.042-0.084,1.137-0.702
		c0.108-0.699-0.592-0.571-0.946-0.791c0.123-0.185,0.241-0.343,0.338-0.514c0.213-0.373,0.243-0.735-0.018-1.118
		c-0.345-0.507-0.602,0.016-0.899,0.044c-0.197,0.019-0.397,0.012-0.597,0.017c-0.401-0.194-0.8-0.188-1.198,0.011l0.022-0.012
		c-1.578,0.221-3.073,0.754-4.587,1.217c-0.452,0.138-0.961,0.405-1.285-0.143c-0.297-0.501,0.076-0.866,0.386-1.258
		c1.374-1.739,3.106-3.204,4.056-5.266c0.478-0.948-0.645-0.652-0.84-1.077c-0.087-0.985-0.663-1.758-1.122-2.581
		c0.405-0.023,0.788-0.35,1.223,0.061c0.326,0.309,0.563-0.018,0.721-0.321c0.746,0.004,0.942,0.428,0.833,1.085
		c-0.125,0.12-0.202,0.277-0.314,0.408c0.125-0.066,0.118-0.236,0.244-0.306c1.862,1.698,3.706,3.411,4.815,5.739
		c0.153,0.322,0.318,0.638,0.375,0.997c0.106,0.668,0.109,0.667,0.804,0.695c-0.121-0.702-0.834-1.313-0.322-2.114
		c0.153-0.041,0.316-0.059,0.456-0.126c0.265-0.129,0.48-0.493,0.826-0.151c0.271,0.269,0.064,0.521-0.054,0.761
		c-0.164,0.333-0.292,0.652-0.071,1.015c0.144,0.234,0.219,0.563,0.55,0.564c0.332,0.001,0.683-0.152,0.697-0.519
		c0.024-0.643,0.576-0.896,1.092-1.497c-1.184,0.244-1.491-1.112-2.539-0.875c-0.149,0.034-0.213-0.305-0.107-0.499
		c0.16-0.293,0.378-0.386,0.684-0.172c0.301,0.21,0.575,0.762,0.984,0.383c0.417-0.386,0.734-0.93,0.418-1.575
		c0.58-0.027,0.782,0.429,0.869,0.833c0.3,1.391,0.305,2.774-0.361,4.093C180.023,13.082,179.563,13.279,179.06,13.434z"/>
	<path fill-rule="evenodd" clip-rule="evenodd" fill="#D659A0" d="M167.526,6.009c-0.657-0.243-1.307,0.059-1.965,0.036
		c-0.278-0.01-0.628,0.376-0.842,0.011c-0.227-0.387,0.029-0.732,0.326-1.048c0.325-0.346,0.972-0.481,0.833-1.163
		c0.07,0.084,0.14,0.168,0.209,0.252c0.451,0.22,0.93,0.028,1.389,0.096c0.578,0.084,0.921,0.457,0.956,1.026
		C168.469,5.823,168.094,6.05,167.526,6.009z"/>
	<path fill-rule="evenodd" clip-rule="evenodd" fill="#FFFFFF" d="M183.141,20.634c-0.075,0.583-0.375,0.939-0.991,0.973
		C182.468,21.271,182.505,20.648,183.141,20.634z"/>
	<path fill-rule="evenodd" clip-rule="evenodd" fill="#D5559F" d="M170.617,7.694c-0.173,0.08-0.383,0.122-0.514,0.246
		c-0.868,0.819-0.939,0.263-0.899-0.506c0.243-0.186,0.316-0.482,0.471-0.726l-0.004,0.005C170.12,6.91,171.491,6.218,170.617,7.694
		z"/>
	<path fill-rule="evenodd" clip-rule="evenodd" fill="#D5559F" d="M178.8,18.622c-0.482,0.054-0.996,0.293-1.258-0.305
		c-0.089-0.203,0.042-0.306,0.186-0.354C178.327,17.762,178.435,18.411,178.8,18.622z"/>
	<path fill-rule="evenodd" clip-rule="evenodd" fill="#D5559F" d="M176.62,18.431c0.003,0.203-0.025,0.438-0.271,0.419
		c-0.289-0.021-0.486-0.245-0.559-0.521c-0.043-0.166,0.078-0.283,0.26-0.302C176.36,17.994,176.591,18.068,176.62,18.431z"/>
	<path fill-rule="evenodd" clip-rule="evenodd" fill="#D5559F" d="M171.126,5.029c0,0.04,0.005,0.08-0.003,0.118
		c-0.069,0.325,0.171,0.741-0.216,0.963c-0.208,0.119-0.385-0.093-0.437-0.274c-0.16-0.56,0.355-0.602,0.659-0.803L171.126,5.029z"
		/>
	<path fill-rule="evenodd" clip-rule="evenodd" fill="#D5559F" d="M177.436,19.83c0.183-0.006,0.299,0.092,0.315,0.262
		c0.018,0.183-0.11,0.302-0.279,0.281c-0.109-0.013-0.323,0.192-0.334-0.09C177.13,20.086,177.217,19.903,177.436,19.83z"/>
	<path fill-rule="evenodd" clip-rule="evenodd" fill="#D5559F" d="M169.674,6.708c0.089,0.401-0.089,0.63-0.471,0.726
		c-0.523,0.847-1.031,1.709-2.064,2.03c0.146,0.489,0.441,0.168,0.671,0.151c0.27-0.02,0.463,0.099,0.584,0.321
		c0.124,0.229,0.119,0.488-0.098,0.643c-0.916,0.654-1.529,1.594-2.307,2.375c-0.884,0.887-1.625,0.843-2.458-0.093
		c-0.317-0.356-0.665-0.62-1.061-0.852c-0.523-1.193-0.869-2.418-0.715-3.744c0.041-0.351-0.069-0.768,0.32-0.963
		c0.425-0.212,0.589,0.305,0.913,0.422c0.307,0.112,0.304,0.673,0.781,0.625c0.044-0.06,0.136-0.136,0.123-0.18
		c-0.473-1.532-0.467-1.476,1.284-1.713c0.778-0.106,1.625,0.015,2.337-0.465c0.24,0.005,0.523,0.096,0.711,0
		C169.06,5.569,169.379,6.093,169.674,6.708z"/>
</g>
</svg>
